DBRep_DrawableShape

CASCADE Topology V1, (c) Matra-Datavision
Locations 0
Curve2ds 156
7 0 0  1 2 2  -1.0451539536170812e-17 1.3809008732497408e-16  -1.0451539536170812e-17 -0.088746714876119348 
 0 2 2704.9998694241222 2
8 0 2704.9998694241222
7 0 0  1 2 2  -0.088746719160111814 -5.2458037947595807e-15  -4.2839922826071013e-09 -4.4547698863084406e-15 
 0 2 2704.9998694241222 2
7 0 0  1 2 2  -1.0451539536170812e-17 -0.088746714876119348  0.01955380577427825 -0.088746714876119348 
 0 2 596 2
8 0 596
7 0 0  1 2 2  -3.4699975233693295e-17 2.1769804979823722e-18  -0.019553805774278298 2.1769804979823722e-18 
 0 2 596 2
7 0 0  1 2 2  0.01955380577427825 -0.088746714876119348  0.01955380577427825 1.3809008732497408e-16 
 0 2 2704.9998694241222 2
8 0 2704.9998694241222
7 0 0  1 2 2  -1.3530843112619095e-16 1.497070912847974e-16  0.08874671487611939 -6.470518599450651e-16 
 0 2 2704.9998694241222 2
7 0 0  1 2 2  0.01955380577427825 1.3809008732497408e-16  -1.0451539536170812e-17 1.3809008732497427e-16 
 0 2 596 2
8 0 596
7 0 0  1 2 2  -0.019553805774278354 0.37624671916009633  -8.1427818318397654e-17 0.37624671916009639 
 0 2 596 2
8 0 11467.999999999745
7 0 0  1 2 2  -0.088746719160109178 -0.37624671916010188  -0.088746719160111814 -5.2371301773796967e-15 
 0 2 11467.999999999745 2
7 0 0  1 2 2  -8.1427818318397654e-17 -2.3386918486870134e-16  -8.1427818318397654e-17 0.37624671916009639 
 0 2 11467.999999999745 2
8 0 8747.9999999999491
7 0 0  1 2 2  0.19826115485563744 -0.37624671916010088  -0.088746719160108942 -0.37624671916010199 
 0 2 8747.9999999999491 2
7 0 0  1 2 2  1.1920718183183396e-17 1.3637908077152039e-16  1.1920718183183759e-17 0.28700787401574668 
 0 2 8747.9999999999491 2
8 0 8107.9999999999864
7 0 0  1 2 2  0.19826115485563553 -0.11023622047243727  0.19826115485563744 -0.37624671916010083 
 0 2 8107.9999999999864 2
7 0 0  1 2 2  -4.4010137873438937e-17 -9.7208889158692524e-17  -4.4010137873438925e-17 -0.26601049868766369 
 0 2 8107.9999999999864 2
8 0 5662.0000000000291
7 0 0  1 2 2  0.38402230971127949 -0.11023622047243664  0.19826115485563553 -0.11023622047243727 
 0 2 5662.0000000000291 2
7 0 0  1 2 2  1.1920718183183396e-17 5.3474884026058489e-17  1.1920718183183396e-17 0.18576115485564407 
 0 2 5662.0000000000291 2
8 0 8108.0000000000018
7 0 0  1 2 2  0.38402230971128154 -0.37624671916010077  0.38402230971127949 -0.1102362204724367 
 0 2 8108.0000000000018 2
7 0 0  1 2 2  1.1920718183183396e-17 -1.0343288725511712e-16  1.1920718183183396e-17 0.26601049868766397 
 0 2 8108.0000000000018 2
8 0 8748.0000000000509
7 0 0  1 2 2  0.67103018372703138 -0.37624671916009972  0.38402230971128165 -0.37624671916010083 
 0 2 8748.0000000000509 2
7 0 0  1 2 2  -3.4699975233693295e-17 9.9539079019767878e-18  -3.4699975233694022e-17 0.28700787401574962 
 0 2 8748.0000000000509 2
8 0 11467.999999999853
7 0 0  1 2 2  0.67103018372702861 4.4755865339630018e-16  0.67103018372703127 -0.37624671916009972 
 0 2 11467.999999999853 2
7 0 0  1 2 2  3.6172118496021269e-17 1.5054824791319033e-16  3.6172118496021269e-17 -0.37624671916010011 
 0 2 11467.999999999853 2
8 0 2705.0000000000928
7 0 0  1 2 2  0.58228346456692059 -1.2663481374630692e-16  0.6710301837270285 4.4755865339630018e-16 
 0 2 2705.0000000000928 2
7 0 0  1 2 2  -1.0451539536170812e-17 1.9817182833961611e-17  -1.0451539536170812e-17 -0.088746719160107984 
 0 2 2705.0000000000928 2
8 0 5885.9999999995634
7 0 0  1 2 2  0.58228346456691915 0.19311023622045803  0.58228346456692059 -7.4416449963412417e-17 
 0 2 5885.9999999995634 2
7 0 0  1 2 2  -1.0451539536170812e-17 1.3881175939603474e-17  -1.0451539536170812e-17 -0.19311023622045809 
 0 2 5885.9999999995634 2
8 0 1199.9999999999563
7 0 0  1 2 2  0.62165354330707523 0.19311023622045803  0.58228346456691915 0.19311023622045803 
 0 2 1199.9999999999563 2
7 0 0  1 2 2  -3.4699975233693295e-17 3.6211505528068594e-17  -3.4699975233693252e-17 0.039370078740155974 
 0 2 1199.9999999999563 2
7 0 0  1 2 2  0.62165354330707523 0.40748031496063536  0.62165354330707523 0.19311023622045806 
 0 2 6534.0000000006039 2
8 0 6534.0000000006039
7 0 0  1 2 2  -0.01955380577427825 2.351024648399036e-17  -0.01955380577427825 -0.21437007874017733 
 0 2 6534.0000000006039 2
8 0 20147.999999999949
7 0 0  1 2 2  -0.03937007874016709 0.40748031496063009  0.62165354330707534 0.40748031496063536 
 0 2 20147.999999999949 2
7 0 0  1 2 2  3.6172118496021269e-17 -3.0708671282936306e-16  3.6172118496021269e-17 -0.66102362204724263 
 0 2 20147.999999999949 2
8 0 6534.000000000503
7 0 0  1 2 2  -0.03937007874016709 0.19311023622045614  -0.03937007874016709 0.40748031496063009 
 0 2 6534.000000000503 2
7 0 0  1 2 2  1.1920718183183396e-17 -0.21437007874017394  1.1920718183183396e-17 -5.3874683577162519e-17 
 0 2 6534.000000000503 2
7 0 0  1 2 2  -4.2839937148923812e-09 0.19311023622045614  -0.03937007874016709 0.19311023622045614 
 0 2 1199.9998694241658 2
8 0 1199.9998694241658
7 0 0  1 2 2  1.1920718183183396e-17 -1.9077723071008607e-17  1.1920718183183487e-17 0.039370074456173583 
 0 2 1199.9998694241658 2
7 0 0  1 2 2  -4.2839922826071013e-09 -4.4547698863084406e-15  -4.2839937148923812e-09 0.19311023622045614 
 0 2 5885.9999999996389 2
8 0 5885.9999999996389
7 0 0  1 2 2  -3.4699975233693295e-17 2.1769804979823722e-18  -3.4699975233693295e-17 0.19311023622046058 
 0 2 5885.9999999996389 2
8 0 2660.0000000000036
7 0 0  1 2 2  0.24793307086613395 -0.092749343832019243  0.33520341207348314 -0.092749343832018757 
 0 2 2660.0000000000036 2
7 0 0  1 2 2  -0.019553805774278298 0.087270341207349209  -0.019553805774278298 -4.8197868764663853e-17 
 0 2 2660.0000000000036 2
7 0 0  1 2 2  0.24793307086613348 -0.028051181102360549  0.24793307086613384 -0.092749343832019215 
 0 2 1971.9999999999968 2
8 0 1971.9999999999968
7 0 0  1 2 2  3.6172118496021269e-17 6.394590532001615e-17  3.6172118496021269e-17 -0.064698162729658643 
 0 2 1971.9999999999968 2
8 0 2660
7 0 0  1 2 2  0.24793307086613348 -0.028051181102360503  0.33520341207348264 -0.028051181102359997 
 0 2 2660 2
7 0 0  1 2 2  0.01955380577427825 -1.2110877079841986e-17  0.01955380577427825 -0.087270341207349209 
 0 2 2660 2
8 0 1971.9999999999977
7 0 0  1 2 2  0.33520341207348314 -0.09274934383201873  0.33520341207348286 -0.028051181102359997 
 0 2 1971.9999999999977 2
7 0 0  1 2 2  0.01955380577427825 -0.064698162729658684  0.01955380577427825 4.0001130934082571e-17 
 0 2 1971.9999999999977 2
8 0 596
7 0 0  1 2 2  -0.019553805774278298 0.19311023622046058  -3.4699975233693295e-17 0.19311023622046058 
 0 2 596 2
7 0 0  1 2 2  -0.01955380577427825 -1.9077723071008607e-17  1.1920718183183396e-17 -1.9077723071008619e-17 
 0 2 596 2
8 0 5885.9999999996389
7 0 0  1 2 2  -0.019553805774278298 0.19311023622046058  -0.019553805774278298 -1.274345195613272e-17 
 0 2 5885.9999999996389 2
7 0 0  1 2 2  1.2941037130786981e-15 0.19311023622046072  -1.3530843112619095e-16 1.3478755877539897e-16 
 0 2 5885.9999999996389 2
8 0 11467.999999999856
7 0 0  1 2 2  -0.67103018801102376 -0.37624671916009522  -0.6710301880110211 5.0306980769270245e-15 
 0 2 11467.999999999856 2
7 0 0  1 2 2  0.019553805774278298 -0.37624671916010022  0.019553805774278298 9.0856142054285272e-17 
 0 2 11467.999999999856 2
8 0 8748.0000000000546
7 0 0  1 2 2  -0.38402231399527398 -0.37624671916009628  -0.67103018801102376 -0.37624671916009511 
 0 2 8748.0000000000546 2
7 0 0  1 2 2  -0.019553805774278298 0.28700787401574973  -0.019553805774278298 9.9539079019768371e-18 
 0 2 8748.0000000000546 2
8 0 8108.0000000000027
7 0 0  1 2 2  -0.38402231399527192 -0.11023622047243208  -0.38402231399527398 -0.37624671916009622 
 0 2 8108.0000000000027 2
7 0 0  1 2 2  -0.01955380577427825 0.26601049868766402  -0.01955380577427825 -1.0344305165048417e-16 
 0 2 8108.0000000000027 2
8 0 5662.0000000000291
7 0 0  1 2 2  -0.19826115913962797 -0.11023622047243267  -0.38402231399527192 -0.11023622047243202 
 0 2 5662.0000000000291 2
7 0 0  1 2 2  -0.01955380577427825 0.18576115485564407  -0.01955380577427825 5.3474884026058489e-17 
 0 2 5662.0000000000291 2
8 0 8107.9999999999891
7 0 0  1 2 2  -0.19826115913962986 -0.37624671916009639  -0.19826115913962797 -0.11023622047243267 
 0 2 8107.9999999999891 2
7 0 0  1 2 2  0.019553805774278142 -0.2660104986876638  0.019553805774278142 -1.2705494208814505e-16 
 0 2 8107.9999999999891 2
8 0 8747.9999999999491
7 0 0  1 2 2  0.088746714876116531 -0.37624671916009739  -0.19826115913962961 -0.37624671916009622 
 0 2 8747.9999999999491 2
7 0 0  1 2 2  -0.01955380577427825 0.2870078740157469  -0.01955380577427825 3.7509329409851633e-16 
 0 2 8747.9999999999491 2
8 0 11467.999999999745
7 0 0  1 2 2  0.08874671487611939 -6.470518599450651e-16  0.088746714876116767 -0.37624671916009728 
 0 2 11467.999999999745 2
7 0 0  1 2 2  -0.019553805774278354 0.37624671916009633  -0.019553805774278354 -2.3386918486870134e-16 
 0 2 11467.999999999745 2
7 0 0  1 2 2  0.03937007445617486 0.19311023622046072  1.2941037130786981e-15 0.19311023622046072 
 0 2 1199.9998694241658 2
8 0 1199.9998694241658
7 0 0  1 2 2  -0.01955380577427825 0.039370074456173583  -0.01955380577427825 -1.9077723071008607e-17 
 0 2 1199.9998694241658 2
8 0 6534.000000000503
7 0 0  1 2 2  0.03937007445617486 0.40748031496063464  0.03937007445617486 0.19311023622046067 
 0 2 6534.000000000503 2
7 0 0  1 2 2  -0.01955380577427825 -5.3854354786428416e-17  -0.01955380577427825 -0.214370078740174 
 0 2 6534.000000000503 2
8 0 20147.999999999953
7 0 0  1 2 2  -0.62165354759106761 0.40748031496063997  0.039370074456175096 0.40748031496063469 
 0 2 20147.999999999953 2
7 0 0  1 2 2  0.019553805774278298 -0.66102362204724263  0.019553805774278298 -6.8372499502367123e-17 
 0 2 20147.999999999953 2
7 0 0  1 2 2  -0.62165354759106761 0.19311023622046264  -0.62165354759106761 0.40748031496063997 
 0 2 6534.0000000006048 2
8 0 6534.0000000006048
7 0 0  1 2 2  1.1920718183183396e-17 -0.21437007874017738  1.1920718183183396e-17 -3.6167883553603368e-17 
 0 2 6534.0000000006048 2
8 0 1199.9999999999563
7 0 0  1 2 2  -0.58228346885091165 0.19311023622046264  -0.62165354759106761 0.19311023622046264 
 0 2 1199.9999999999563 2
7 0 0  1 2 2  -0.019553805774278298 0.039370078740155974  -0.019553805774278298 3.6198800033859779e-17 
 0 2 1199.9999999999563 2
8 0 5885.9999999995634
7 0 0  1 2 2  -0.58228346885091298 4.5068115905877448e-15  -0.58228346885091165 0.19311023622046261 
 0 2 5885.9999999995634 2
7 0 0  1 2 2  0.01955380577427825 -0.19311023622045809  0.01955380577427825 -1.5958100726271018e-17 
 0 2 5885.9999999995634 2
8 0 2705.0000000000928
7 0 0  1 2 2  -0.6710301880110211 5.044575864734839e-15  -0.58228346885091298 4.4695127593142486e-15 
 0 2 2705.0000000000928 2
7 0 0  1 2 2  0.01955380577427825 -0.088746719160107984  0.01955380577427825 1.9817182833961611e-17 
 0 2 2705.0000000000928 2
8 0 2660.0000000000036
7 0 0  1 2 2  -0.33520341635747564 -0.092749343832014108  -0.24793307515012636 -0.092749343832014636 
 0 2 2660.0000000000036 2
7 0 0  1 2 2  -3.4699975233693295e-17 -4.8197868764664198e-17  -3.4699975233693295e-17 0.087270341207349209 
 0 2 2660.0000000000036 2
8 0 1971.9999999999986
7 0 0  1 2 2  -0.33520341635747503 -0.028051181102355393  -0.33520341635747553 -0.092749343832014136 
 0 2 1971.9999999999986 2
7 0 0  1 2 2  -1.0451539536170812e-17 1.0154230971684552e-17  -1.0451539536170812e-17 -0.064698162729658712 
 0 2 1971.9999999999986 2
8 0 2660
7 0 0  1 2 2  -0.33520341635747503 -0.028051181102355393  -0.24793307515012589 -0.028051181102355913 
 0 2 2660 2
7 0 0  1 2 2  -1.0451539536170812e-17 -0.087270341207349209  -1.0451539536170812e-17 -1.2110877079842165e-17 
 0 2 2660 2
7 0 0  1 2 2  -0.24793307515012636 -0.092749343832014636  -0.247933075150126 -0.028051181102355927 
 0 2 1971.9999999999968 2
8 0 1971.9999999999968
7 0 0  1 2 2  0.019553805774278298 -0.064698162729658643  0.019553805774278298 6.3945905320015484e-17 
 0 2 1971.9999999999968 2
7 0 0  1 2 2  -0.019553805774278354 -2.3386918486870134e-16  -8.1427818318397654e-17 -2.3386918486869799e-16 
 0 2 596 2
8 0 596
7 0 0  1 2 2  -0.01955380577427825 0.2870078740157469  1.1920718183183396e-17 0.2870078740157469 
 0 2 596 2
7 0 0  1 2 2  -0.01955380577427825 1.3637908077152039e-16  1.1920718183183396e-17 1.3637908077152108e-16 
 0 2 596 2
8 0 596
7 0 0  1 2 2  0.019553805774278142 -0.2660104986876638  -1.0368826791103264e-16 -0.2660104986876638 
 0 2 596 2
7 0 0  1 2 2  0.019553805774278142 -9.7215665422270559e-17  -4.401013787343821e-17 -6.7369824139896455e-17 
 0 2 596 2
8 0 596
7 0 0  1 2 2  -0.01955380577427825 0.18576115485564407  1.1920718183183396e-17 0.18576115485564407 
 0 2 596 2
7 0 0  1 2 2  -0.01955380577427825 -6.588222263743948e-17  1.1920718183183396e-17 -6.5881376049128868e-17 
 0 2 596 2
8 0 596
7 0 0  1 2 2  -0.01955380577427825 0.26601049868766402  1.1920718183183396e-17 0.26601049868766391 
 0 2 596 2
7 0 0  1 2 2  -0.01955380577427825 -1.0344305165048417e-16  1.1920718183183396e-17 -1.0343288725511799e-16 
 0 2 596 2
8 0 596
7 0 0  1 2 2  -0.019553805774278298 0.28700787401574973  -3.4699975233693295e-17 0.28700787401574973 
 0 2 596 2
7 0 0  1 2 2  -0.019553805774278298 9.9539079019772561e-18  -3.4699975233693295e-17 9.9539079019767878e-18 
 0 2 596 2
8 0 596
7 0 0  1 2 2  0.019553805774278298 -0.37624671916010022  3.6172118496021269e-17 -0.37624671916010022 
 0 2 596 2
7 0 0  1 2 2  0.019553805774278298 1.2815947305136466e-16  3.6172118496021269e-17 1.8038731293198674e-16 
 0 2 596 2
8 0 596
7 0 0  1 2 2  0.01955380577427825 -0.088746719160107984  -1.0451539536170812e-17 -0.088746719160107984 
 0 2 596 2
7 0 0  1 2 2  0.01955380577427825 1.9817182833961611e-17  -1.0451539536170812e-17 1.981718283396137e-17 
 0 2 596 2
8 0 596
7 0 0  1 2 2  0.01955380577427825 -0.19311023622045809  -1.0451539536170812e-17 -0.19311023622045809 
 0 2 596 2
7 0 0  1 2 2  0.01955380577427825 1.3881175939603474e-17  -1.0451539536170812e-17 4.3720240958400332e-17 
 0 2 596 2
8 0 596
7 0 0  1 2 2  -0.019553805774278298 0.039370078740155974  -3.4699975233693295e-17 0.039370078740155974 
 0 2 596 2
7 0 0  1 2 2  -0.019553805774278298 3.6198800033859779e-17  -3.4699975233693295e-17 3.6211505528068606e-17 
 0 2 596 2
8 0 596
7 0 0  1 2 2  1.1920718183183396e-17 -0.21437007874017738  -0.01955380577427825 -0.21437007874017738 
 0 2 596 2
8 0 596
7 0 0  1 2 2  -0.01955380577427825 -3.6167883553603368e-17  1.1920718183183396e-17 2.351024648399036e-17 
 0 2 596 2
7 0 0  1 2 2  3.6172118496021269e-17 -0.66102362204724263  0.019553805774278298 -0.66102362204724252 
 0 2 596 2
8 0 596
7 0 0  1 2 2  3.6172118496021269e-17 -3.0708671282936306e-16  0.019553805774278298 -3.0708671282936306e-16 
 0 2 596 2
7 0 0  1 2 2  1.1920718183183396e-17 -1.1355281361475623e-16  -0.01955380577427825 5.8237752511653123e-18 
 0 2 596 2
7 0 0  1 2 2  -0.01955380577427825 -0.21437007874017394  1.1920718183183396e-17 -0.21437007874017394 
 0 2 596 2
8 0 596
7 0 0  1 2 2  -0.01955380577427825 0.039370074456173583  1.1920718183183396e-17 0.039370074456173583 
 0 2 596 2
8 0 596
7 0 0  1 2 2  -3.4699975233693295e-17 -4.8197868764664025e-17  -0.019553805774278298 -4.8197868764664198e-17 
 0 2 596 2
7 0 0  1 2 2  -1.0451539536170812e-17 -0.064698162729658684  0.01955380577427825 -0.064698162729658684 
 0 2 596 2
7 0 0  1 2 2  -3.4699975233693295e-17 0.087270341207349209  -0.019553805774278298 0.087270341207349209 
 0 2 596 2
8 0 596
7 0 0  1 2 2  0.019553805774278298 -0.064698162729658643  3.6172118496021269e-17 -0.064698162729658643 
 0 2 596 2
8 0 596
7 0 0  1 2 2  0.019553805774278298 6.394590532001615e-17  3.6172118496021269e-17 6.394590532001615e-17 
 0 2 596 2
7 0 0  1 2 2  -1.0451539536170812e-17 -1.2110877079841986e-17  0.01955380577427825 -1.2110877079841986e-17 
 0 2 596 2
8 0 596
7 0 0  1 2 2  0.01955380577427825 -0.087270341207349209  -1.0451539536170812e-17 -0.087270341207349209 
 0 2 596 2
7 0 0  1 2 2  0.01955380577427825 4.0001130934084334e-17  -1.0451539536170812e-17 1.0154230971684552e-17 
 0 2 596 2
7 0 0  1 2 2  -3.4206596659808638e-17 9.7886515516495964e-17  -0.0016956279149536277 -0.048556430446194281 
 0 2 1480.9021255622597 2
8 0 1480.9021255622597
7 0 0  1 2 2  -1.6101757514125348e-16 -0.075295275590552505  -0.048586027741544059 -0.075295275590552324 
 0 2 1480.9021255622597 2
7 0 0  1 2 2  -0.0016956279149536277 -0.048556430446194281  -3.4206596659808743e-17 -0.097112860892388478 
 0 2 1480.9021255622563 2
8 0 1480.9021255622563
7 0 0  1 2 2  0.048586027741543802 -0.07529527559055231  1.3157692487808389e-17 -0.075295275590552185 
 0 2 1480.9021255622563 2
7 0 0  1 2 2  -3.4206596659808743e-17 -0.097112860892388478  0.0065656794245329501 -0.097112860892388478 
 0 2 200.12190885976452 2
8 0 200.12190885976452
7 0 0  1 2 2  0.0065656794245329865 9.413924175784294e-18  -1.0641063158118962e-17 9.413924175784294e-18 
 0 2 200.12190885976452 2
7 0 0  1 2 2  0.0065656794245329501 -0.097112860892388242  0.0048700515095793573 -0.048556430446194045 
 0 2 1480.9021255622563 2
8 0 1480.9021255622563
7 0 0  1 2 2  0.048586027741543997 -1.1084273147769774e-17  2.5868358875274168e-16 -1.3043968574537324e-16 
 0 2 1480.9021255622563 2
7 0 0  1 2 2  0.0048700515095793573 -0.048556430446194281  0.0065656794245329501 9.7911079027329574e-17 
 0 2 1480.9021255622597 2
8 0 1480.9021255622597
7 0 0  1 2 2  0.048586027741543636 -0.075295275590552282  -2.5769198651022854e-16 -0.075295275590552463 
 0 2 1480.9021255622597 2
7 0 0  1 2 2  0.0065656794245329501 2.1726733910251705e-16  -3.4206596659808422e-17 2.1724277559168359e-16 
 0 2 200.12190885976452 2
8 0 200.12190885976452
7 0 0  1 2 2  -3.4904216053099988e-17 -0.075295275590552546  -0.0065656794245330325 -0.075295275590552546 
 0 2 200.12190885976452 2
7 0 0  1 2 2  -4.1735007377113886e-17 -6.8526659498767406e-17  -1.631003118437119e-16 -0.075295275590552532 
 0 2 2295.0000000000405 2
8 0 2295.0000000000405
7 0 0  1 2 2  -0.0065656794245330325 -5.6898591198859237e-17  -0.0065656794245330325 -0.075295275590552546 
 0 2 2295.0000000000405 2
7 0 0  1 2 2  -0.04858602774154358 -2.3757580104588616e-17  -4.3817744079572382e-17 -5.3607126989369002e-17 
 0 2 1480.902125562249 2
8 0 1480.902125562249
7 0 0  1 2 2  0.0016956279149536251 0.048556430446194711  3.1509607519968895e-17 0.097112860892388728 
 0 2 1480.902125562249 2
7 0 0  1 2 2  -0.048586027741543823 -0.075295275590552324  -0.04858602774154358 -2.3757580104588616e-17 
 0 2 2295.0000000000346 2
8 0 2295.0000000000346
7 0 0  1 2 2  0.048586027741544045 -0.07529527559055231  0.048586027741544406 1.1978739940070315e-17 
 0 2 2295.0000000000346 2
7 0 0  1 2 2  -1.0823568138088897e-16 -2.9441807011171523e-18  0.04858602774154417 2.689827244946867e-17 
 0 2 1480.9021255622633 2
8 0 1480.9021255622633
7 0 0  1 2 2  3.1509607519968895e-17 3.861962019711257e-17  0.0016956279149536251 0.048556430446194475 
 0 2 1480.9021255622633 2
7 0 0  1 2 2  1.1074955785349977e-17 -0.075295275590552185  1.3241415825446608e-16 -1.7863713210515526e-17 
 0 2 2295.0000000000305 2
8 0 2295.0000000000305
7 0 0  1 2 2  0.0065656794245329865 9.413924175784294e-18  0.0065656794245329865 0.075295275590552185 
 0 2 2295.0000000000305 2
7 0 0  1 2 2  -1.0641063158118962e-17 0.075295275590552185  0.0065656794245329865 0.075295275590552199 
 0 2 200.12190885976452 2
8 0 200.12190885976452
7 0 0  1 2 2  -0.0065656794245329527 3.8628090526585113e-17  3.1509607519968895e-17 3.861962019711257e-17 
 0 2 200.12190885976452 2
7 0 0  1 2 2  -1.0641063158118962e-17 9.413924175784294e-18  -1.0641063158121131e-17 0.075295275590552171 
 0 2 2295.0000000000309 2
8 0 2295.0000000000309
7 0 0  1 2 2  0.048586027741544233 -1.1084273147769802e-17  0.048586027741544358 0.075295275590552185 
 0 2 2295.0000000000309 2
7 0 0  1 2 2  4.9725069168563701e-16 -1.3043968574537324e-16  1.3723458404824723e-16 0.075295275590552171 
 0 2 2295.0000000000346 2
8 0 2295.0000000000346
7 0 0  1 2 2  0.048586027741543629 -0.075295275590552282  0.0485860277415434 4.423714270330309e-17 
 0 2 2295.0000000000346 2
7 0 0  1 2 2  -1.0133224554592641e-16 0.075295275590552158  0.048586027741544115 0.075295275590552185 
 0 2 1480.9021255622633 2
8 0 1480.9021255622633
7 0 0  1 2 2  -0.0048700515095793599 0.048556430446194711  -0.0065656794245329527 2.7734061067695993e-16 
 0 2 1480.9021255622633 2
7 0 0  1 2 2  -3.7905740829166645e-16 4.4240530835092107e-17  0.048586027741543157 4.4237142703303182e-17 
 0 2 1480.902125562249 2
8 0 1480.902125562249
7 0 0  1 2 2  -0.0065656794245329527 0.097112860892388728  -0.0048700515095793599 0.048556430446194711 
 0 2 1480.902125562249 2
8 0 2295.00000000004
7 0 0  1 2 2  -3.8322288169658315e-16 1.44014658162952e-17  -3.7697455427436813e-16 -0.075295275590552491 
 0 2 2295.00000000004 2
7 0 0  1 2 2  -3.4904216053099988e-17 -7.1818229531797617e-17  -3.4904216053099988e-17 -0.075295275590552546 
 0 2 2295.00000000004 2
7 0 0  1 2 2  -0.0065656794245330325 -4.1979058689461375e-17  -3.4904216053095649e-17 -5.6898697022398621e-17 
 0 2 200.12190885976452 2
8 0 200.12190885976452
7 0 0  1 2 2  3.1509607519968895e-17 0.097112860892388728  -0.0065656794245329527 0.097112860892388728 
 0 2 200.12190885976452 2
Curves 78
1 39424.075291237648 -1518.8681244403817 10000 -1 8.9100224622612216e-15 0 
1 36719.075421813526 -1518.8681244403576 10000 0 0 1 
1 36719.075421813526 -1518.8681244403576 10596 1 -8.9100224622612216e-15 0 
1 39424.075291237648 -1518.8681244403817 10596 0 0 -1 
1 39424.075291237568 -12986.868124440127 10000 6.9790315448220667e-15 1 0 
1 30676.075291237612 -12986.868124440096 10000 1 -4.1586406116732213e-15 0 
1 30676.07529123767 -4878.8681244401096 10000 -7.1790405665352124e-15 -1 0 
1 25014.075291237641 -4878.8681244400905 10000 1 -3.3732583428525954e-15 0 
1 25014.075291237579 -12986.868124440094 10000 7.6277306019436488e-15 1 0 
1 16266.075291237525 -12986.868124440061 10000 1 -3.9507085810895141e-15 0 
1 16266.07529123761 -1518.8681244402082 10000 -7.4548746046962281e-15 -1 0 
1 18971.075291237703 -1518.8681244402258 10000 -1 6.4723744950566614e-15 0 
1 18971.075291237747 4367.1318755593393 10000 -7.4168783019204537e-15 -1 0 
1 17771.07529123779 4367.1318755593393 10000 1 0 0 
1 17771.07529123779 10901.131875559944 10000 0 -1 0 
1 37919.075291237736 10901.131875559782 10000 -1 8.0350435237036742e-15 0 
1 37919.075291237736 4367.1318755592811 10000 0 1 0 
1 36719.07542181357 4367.1318755592811 10000 1 0 0 
1 36719.075421813526 -1518.8681244403576 10000 7.4168783019203591e-15 1 0 
1 29162.075291237677 -4345.8681244401678 10000 -1 5.4706448226942976e-15 0 
1 29162.075291237692 -2373.868124440171 10000 -5.53445051788801e-15 -1 0 
1 29162.075291237692 -2373.86812444017 10000 -1 5.8125601241126994e-15 0 
1 26502.075291237674 -4345.8681244401523 10000 5.5344505178880077e-15 1 0 
1 36719.07542181357 4367.1318755592811 10596 0 0 -1 
1 36719.07542181357 4367.1318755592811 10596 -7.4168783019203591e-15 -1 0 
1 16266.075291237525 -12986.868124440065 10596 7.4548746046962266e-15 1 0 
1 25014.075291237579 -12986.868124440096 10596 -1 3.9507085810895125e-15 0 
1 25014.075291237641 -4878.8681244400914 10596 -7.6277306019436488e-15 -1 0 
1 30676.07529123767 -4878.8681244401096 10596 -1 3.3732583428525954e-15 0 
1 30676.075291237612 -12986.8681244401 10596 7.1790405665352108e-15 1 0 
1 39424.075291237568 -12986.86812444013 10596 -1 4.1586406116732213e-15 0 
1 39424.075291237648 -1518.8681244403817 10596 -6.9790315448220667e-15 -1 0 
1 37919.075291237736 4367.1318755592811 10596 -1 0 0 
1 37919.075291237736 10901.131875559782 10596 0 -1 0 
1 17771.07529123779 10901.131875559944 10596 1 -7.9447621357968905e-15 0 
1 17771.07529123779 4367.1318755593393 10596 0 1 0 
1 18971.075291237747 4367.1318755593393 10596 -1 0 0 
1 18971.075291237703 -1518.8681244402246 10596 6.7988051100937496e-15 1 0 
1 16266.07529123761 -1518.8681244402082 10596 1 -6.4723744950566614e-15 0 
1 26502.075291237674 -4345.8681244401523 10596 1 -5.8125601241126915e-15 0 
1 26502.075291237692 -2373.8681244401546 10596 -7.3792673571840066e-15 -1 0 
1 26502.075291237692 -2373.8681244401546 10596 1 -5.8125601241126994e-15 0 
1 29162.075291237677 -4345.8681244401678 10596 5.53445051788801e-15 1 0 
1 39424.075291237568 -12986.868124440127 10596 0 0 -1 
1 30676.075291237612 -12986.8681244401 10596 0 0 -1 
1 30676.07529123767 -4878.8681244401096 10596 0 0 -1 
1 25014.075291237637 -4878.8681244400914 10596 0 0 -1 
1 25014.075291237579 -12986.868124440094 10596 0 0 -1 
1 16266.075291237525 -12986.868124440065 10596 0 0 -1 
1 16266.07529123761 -1518.8681244402076 10596 0 0 -1 
1 18971.075291237703 -1518.8681244402246 10596 0 0 -1 
1 18971.075291237747 4367.1318755593393 10596 0 0 -1 
1 17771.07529123779 4367.1318755593393 10596 0 0 -1 
1 17771.07529123779 10901.131875559944 10000 0 0 1 
1 37919.075291237736 10901.131875559782 10000 0 0 1 
1 37919.075291237736 4367.1318755592811 10596 0 0 -1 
1 26502.075291237674 -4345.8681244401523 10596 0 0 -1 
1 29162.075291237677 -4345.8681244401678 10596 0 0 -1 
1 29162.075291237692 -2373.868124440171 10596 0 0 -1 
1 26502.075291237692 -2373.8681244401546 10000 0 0 1 
1 29312.075291237688 -4578.8681244401041 11200.121908859765 -0.99939082701909587 3.6848945763824209e-15 0.034899496702499783 
1 27832.075291237685 -4578.8681244400987 11251.80464770755 -0.99939082701909565 2.4565963842549528e-15 -0.034899496702499866 
1 26352.075291237685 -4578.868124440095 11200.121908859765 0 0 -1 
1 26352.075291237692 -4578.868124440095 11000 0.99939082701909565 -2.4565963842549528e-15 0.034899496702499866 
1 27832.075291237685 -4578.8681244400987 11051.682738847785 0.99939082701909587 -3.6848945763824209e-15 -0.034899496702499783 
1 29312.075291237692 -4578.868124440105 11000 0 0 1 
1 29312.075291237692 -2283.8681244400645 11200.121908859765 -1.5851759508024613e-15 -1 0 
1 27832.075291237699 -2283.8681244400641 11251.80464770755 0.99939082701909565 0 -0.034899496702500039 
1 27832.075291237692 -4578.8681244400987 11251.80464770755 3.1703519016049308e-15 1 0 
1 26352.075291237685 -2283.8681244400641 11200.121908859765 0.99939082701909587 0 0.034899496702499699 
1 26352.075291237685 -4578.868124440095 11200.121908859765 3.1703519016049367e-15 1 0 
1 26352.075291237685 -2283.8681244400641 11000 0 0 1 
1 26352.075291237685 -4578.868124440095 11000 0 1 0 
1 27832.075291237685 -4578.8681244400987 11051.682738847785 3.1703519016049308e-15 1 0 
1 27832.075291237699 -2283.8681244400641 11051.682738847785 -0.99939082701909587 0 -0.034899496702499699 
1 29312.075291237692 -2283.8681244400641 11000 -0.99939082701909565 0 0.034899496702500039 
1 29312.075291237692 -2283.868124440065 11000 0 -1 0 
1 29312.075291237692 -2283.8681244400645 11200.121908859765 0 0 -1 
Polygon3D 0
PolygonOnTriangulations 0
Surfaces 30
9 0 0 0 0 1 1 2 2 2 2 36719.075421813526 -1518.8681244403565 10000  39424.075291237648 -1518.8681244403813 10000  
36719.075421813526 -1518.8681244403565 10596  39424.075291237648 -1518.8681244403813 10596  

0 2
0.019553805774278239 2

-0.088746714876119404 2
2.2204460492503131e-16 2

9 0 0 0 0 1 1 2 2 2 2 39424.075291237648 -12986.868124440136 10000  39424.075291237641 10901.131875559946 10000  
16266.075291237525 -12986.868124440136 10000  16266.075291237525 10901.131875559946 10000  

-0.088746719160111731 2
0.67103018372703138 2

-0.37624671916010216 2
0.40748031496063536 2

9 0 0 0 0 1 1 2 2 2 2 36719.075421813526 -1518.8681244403576 10596  36719.07542181357 4367.1318755592811 10596  
36719.075421813526 -1518.8681244403576 10000  36719.07542181357 4367.1318755592811 10000  

-0.019553805774278288 2
-4.5102810375396984e-17 2

-5.8279423864837613e-18 2
0.19311023622046058 2

9 0 0 0 0 1 1 2 2 2 2 16266.075291237525 -12986.86812444013 10596  16266.075291237525 10901.131875559946 10596  
39424.075291237648 -12986.86812444013 10596  39424.075291237641 10901.131875559946 10596  

-0.67103018801102388 2
0.088746714876119182 2

-0.37624671916009739 2
0.40748031496063997 2

9 0 0 0 0 1 1 2 2 2 2 39424.075291237554 -12986.868124440127 10596  39424.075291237634 -1518.8681244403811 10596  
39424.075291237554 -12986.868124440127 10000  39424.075291237634 -1518.8681244403824 10000  

-0.019553805774278343 2
-9.3675067702747583e-17 2

-2.2204460492503131e-16 2
0.37624671916009644 2

9 0 0 0 0 1 1 2 2 2 2 30676.075291237612 -12986.868124440094 10596  39424.075291237568 -12986.868124440125 10596  
30676.075291237612 -12986.868124440094 10000  39424.075291237568 -12986.868124440127 10000  

-0.019553805774278239 2
0 2

1.8649415636748036e-16 2
0.28700787401574679 2

9 0 0 0 0 1 1 2 2 2 2 30676.075291237623 -12986.8681244401 10000  30676.075291237674 -4878.8681244401096 10000  
30676.075291237623 -12986.8681244401 10596.000000000002  30676.07529123767 -4878.8681244401087 10596.000000000004  

-9.3247078183740181e-17 2
0.019553805774278177 2

-0.2660104986876638 2
-1.1102230246251565e-16 2

9 0 0 0 0 1 1 2 2 2 2 25014.075291237637 -4878.8681244400905 10596  30676.07529123767 -4878.8681244401087 10596  
25014.075291237637 -4878.8681244400905 10000  30676.07529123767 -4878.8681244401087 10000  

-0.019553805774278239 2
0 2

0 2
0.18576115485564415 2

9 0 0 0 0 1 1 2 2 2 2 25014.075291237583 -12986.868124440094 10596  25014.075291237641 -4878.8681244400905 10596  
25014.075291237583 -12986.868124440094 10000  25014.075291237641 -4878.8681244400886 10000  

-0.019553805774278239 2
0 2

-1.1102230246251565e-16 2
0.26601049868766402 2

9 0 0 0 0 1 1 2 2 2 2 16266.075291237525 -12986.868124440065 10596  25014.075291237583 -12986.868124440096 10596  
16266.075291237525 -12986.868124440065 10000  25014.075291237583 -12986.8681244401 10000  

-0.019553805774278288 2
-4.5102810375396984e-17 2

0 2
0.2870078740157499 2

9 0 0 0 0 1 1 2 2 2 2 16266.075291237525 -12986.868124440065 10000  16266.07529123761 -1518.8681244402076 10000  
16266.075291237525 -12986.868124440065 10596  16266.07529123761 -1518.8681244402062 10596  

4.662353909187009e-17 2
0.019553805774278288 2

-0.37624671916010022 2
9.0205620750793969e-17 2

9 0 0 0 0 1 1 2 2 2 2 16266.07529123761 -1518.8681244402082 10000  18971.075291237703 -1518.8681244402258 10000  
16266.07529123761 -1518.8681244402082 10596  18971.075291237703 -1518.8681244402258 10596  

0 2
0.019553805774278239 2

-0.088746719160107998 2
1.5220777404854398e-47 2

9 0 0 0 0 1 1 2 2 2 2 18971.075291237703 -1518.8681244402253 10000  18971.075291237747 4367.1318755593393 10000  
18971.075291237703 -1518.8681244402253 10596  18971.075291237743 4367.1318755593393 10596  

0 2
0.019553805774278239 2

-0.19311023622045811 2
4.662353909187009e-17 2

9 0 0 0 0 1 1 2 2 2 2 17771.07529123779 4367.1318755593402 10596  18971.075291237747 4367.1318755593411 10596  
17771.07529123779 4367.1318755593402 10000  18971.07529123775 4367.1318755593402 10000  

-0.019553805774278288 2
-4.5102810375396984e-17 2

9.3247078183740181e-17 2
0.039370078740156189 2

9 0 0 0 0 1 1 2 2 2 2 17771.07529123779 4367.1318755593402 10000  17771.07529123779 10901.131875559946 10000  
17771.07529123779 4367.1318755593402 10596  17771.07529123779 10901.131875559946 10596  

-0.019553805774278239 2
0 2

-0.21437007874017736 2
0 2

9 0 0 0 0 1 1 2 2 2 2 17771.075291237783 10901.131875559944 10000  37919.075291237743 10901.131875559782 10000  
17771.075291237783 10901.131875559944 10596  37919.075291237743 10901.131875559784 10596  

4.662353909187009e-17 2
0.019553805774278288 2

-0.66102362204724274 2
7.2120151022904839e-47 2

9 0 0 0 0 1 1 2 2 2 2 37919.075291237743 4367.1318755592793 10596  37919.075291237743 10901.131875559784 10596  
37919.075291237743 4367.1318755592793 10000  37919.075291237743 10901.131875559786 10000  

-0.019553805774278239 2
0 2

-0.214370078740174 2
5.5511151231257827e-17 2

9 0 0 0 0 1 1 2 2 2 2 36719.07542181357 4367.1318755592793 10596  37919.075291237736 4367.1318755592783 10596  
36719.07542181357 4367.1318755592793 10000  37919.075291237736 4367.1318755592793 10000  

-0.019553805774278239 2
0 2

-7.3495036331490801e-49 2
0.039370074456173576 2

9 0 0 0 0 1 1 2 2 2 2 26502.075291237674 -4345.8681244401523 10000  29162.075291237677 -4345.8681244401678 10000  
26502.075291237674 -4345.8681244401523 10596  29162.075291237677 -4345.8681244401678 10596  

-0.019553805774278288 2
-4.5102810375396984e-17 2

-5.9833930100160687e-47 2
0.087270341207349222 2

9 0 0 0 0 1 1 2 2 2 2 29162.075291237681 -4345.8681244401678 10000  29162.075291237692 -2373.868124440171 10000  
29162.075291237681 -4345.8681244401678 10596  29162.075291237692 -2373.868124440171 10596  

4.662353909187009e-17 2
0.019553805774278288 2

-0.064698162729658643 2
5.8279423864837613e-17 2

9 0 0 0 0 1 1 2 2 2 2 26502.075291237692 -2373.868124440155 10596  29162.075291237692 -2373.868124440171 10596  
26502.075291237692 -2373.868124440155 10000  29162.075291237692 -2373.868124440171 10000  

-1.2402121189639666e-46 2
0.019553805774278239 2

-0.087270341207349153 2
0 2

9 0 0 0 0 1 1 2 2 2 2 26502.075291237677 -4345.8681244401532 10596  26502.075291237692 -2373.8681244401532 10596  
26502.075291237677 -4345.8681244401532 10000  26502.075291237692 -2373.8681244401541 10000  

0 2
0.019553805774278239 2

-0.064698162729658712 2
5.5511151231257827e-17 2

9 0 0 0 0 1 1 2 2 2 2 26352.075291237685 -4578.8681244400941 11251.80464770755  29312.075291237692 -4578.8681244401032 11251.80464770755  
26352.075291237685 -4578.8681244400941 11000  29312.075291237688 -4578.8681244401041 11000  

-0.0016956279149535902 2
0.0065656794245329761 2

-0.097112860892388519 2
2.2204460492503131e-16 2

9 0 0 0 0 1 1 2 2 2 2 27832.075291237685 -4578.868124440105 11251.80464770755  27832.075291237685 -2283.8681244400641 11251.80464770755  
29312.075291237692 -4578.868124440105 11200.121908859763  29312.075291237692 -2283.8681244400632 11200.121908859761  

-0.04858602774154408 2
1.3877787807814457e-17 2

-0.075295275590552532 2
-1.3877787807814457e-17 2

9 0 0 0 0 1 1 2 2 2 2 26352.075291237685 -4578.8681244400987 11200.121908859763  26352.075291237685 -2283.8681244400641 11200.121908859763  
27832.075291237699 -4578.8681244400987 11251.80464770755  27832.075291237692 -2283.8681244400645 11251.804647707548  

-1.1095467067557774e-17 2
0.048586027741544267 2

-0.07529527559055231 2
1.3877787807814457e-17 2

9 0 0 0 0 1 1 2 2 2 2 26352.075291237685 -4578.868124440095 11000  26352.075291237692 -2283.8681244400641 11000  
26352.075291237685 -4578.868124440095 11200.121908859765  26352.075291237696 -2283.8681244400645 11200.121908859765  

0 2
0.0065656794245329752 2

-3.0354328162489268e-48 2
0.075295275590552185 2

9 0 0 0 0 1 1 2 2 2 2 27832.075291237699 -4578.8681244400987 11051.682738847787  27832.075291237692 -2283.8681244400632 11051.682738847785  
26352.075291237685 -4578.8681244400987 11000  26352.075291237685 -2283.8681244400636 11000  

-2.0459179552782273e-36 2
0.048586027741544247 2

-1.3987061727561025e-16 2
0.075295275590552199 2

9 0 0 0 0 1 1 2 2 2 2 29312.075291237692 -4578.8681244401059 11000.000000000002  29312.075291237692 -2283.8681244400645 11000.000000000004  
27832.075291237685 -4578.8681244401059 11051.682738847789  27832.075291237685 -2283.8681244400641 11051.682738847789  

-3.9495203246776504e-16 2
0.048586027741543691 2

-0.075295275590552518 2
3.4967654318902562e-17 2

9 0 0 0 0 1 1 2 2 2 2 29312.075291237677 -4578.8681244401059 11200.121908859765  29312.075291237681 -2283.8681244400645 11200.121908859765  
29312.075291237677 -4578.8681244401059 11000  29312.075291237688 -2283.8681244400645 11000  

-0.0065656794245330221 2
-4.6837533851373792e-17 2

-0.075295275590552574 2
-3.4967654318902568e-17 2

9 0 0 0 0 1 1 2 2 2 2 26352.075291237685 -2283.8681244400641 11000  29312.075291237692 -2283.8681244400641 11000  
26352.075291237685 -2283.8681244400641 11251.80464770755  29312.075291237688 -2283.8681244400641 11251.80464770755  

-0.0065656794245329752 2
0.0016956279149535911 2

0 2
0.097112860892388714 2

Triangulations 0

TShapes 197
Ve
1.00000568434189e-07
39424.0752912376 -1518.86812444038 10000
0 0

0101101
*
Ve
1.00007275957614e-07
36719.0754218135 -1518.86812444036 10000
0 0

0101101
*
Ed
 1e-07 1 1 0
1  1 0 0 2704.99986942412
2  1 1 0 0 2704.99986942412
2  2 2 0 0 2704.99986942412
0

0101000
+197 0 -196 0 *
Ve
1.00007275957614e-07
36719.0754218135 -1518.86812444036 10596
0 0

0101101
*
Ed
 1e-07 1 1 0
1  2 0 0 596
2  3 1 0 0 596
2  4 3 0 0 596
0

0101000
+196 0 -194 0 *
Ve
1e-07
39424.0752912376 -1518.86812444038 10596
0 0

0101101
*
Ed
 1e-07 1 1 0
1  3 0 0 2704.99986942412
2  5 1 0 0 2704.99986942412
2  6 4 0 0 2704.99986942412
0

0101000
+194 0 -192 0 *
Ed
 1e-07 1 1 0
1  4 0 0 596
2  7 1 0 0 596
2  8 5 0 0 596
0

0101000
+192 0 -197 0 *
Wi

0101100
+195 0 +193 0 +191 0 +190 0 *
Fa
0  1e-07 1 0

0111000
+189 0 *
Ve
1.00007499885443e-07
39424.0752912376 -12986.8681244401 10000
0 0

0101101
*
Ed
 1e-07 1 1 0
1  5 0 0 11467.9999999997
2  9 2 0 0 11467.9999999997
2  10 5 0 0 11467.9999999997
0

0101000
+187 0 -197 0 *
Ve
1.0000588637336e-07
30676.0752912376 -12986.8681244401 10000
0 0

0101101
*
Ed
 1e-07 1 1 0
1  6 0 0 8747.99999999995
2  11 2 0 0 8747.99999999995
2  12 6 0 0 8747.99999999995
0

0101000
+185 0 -187 0 *
Ve
1.00003637978807e-07
30676.0752912377 -4878.86812444011 10000
0 0

0101101
*
Ed
 1e-07 1 1 0
1  7 0 0 8107.99999999999
2  13 2 0 0 8107.99999999999
2  14 7 0 0 8107.99999999999
0

0101000
+183 0 -185 0 *
Ve
1.00005624914082e-07
25014.0752912376 -4878.86812444009 10000
0 0

0101101
*
Ed
 1e-07 1 1 0
1  8 0 0 5662.00000000003
2  15 2 0 0 5662.00000000003
2  16 8 0 0 5662.00000000003
0

0101000
+181 0 -183 0 *
Ve
1.00003637978807e-07
25014.0752912376 -12986.8681244401 10000
0 0

0101101
*
Ed
 1e-07 1 1 0
1  9 0 0 8108
2  17 2 0 0 8108
2  18 9 0 0 8108
0

0101000
+179 0 -181 0 *
Ve
1.00001818989404e-07
16266.0752912375 -12986.8681244401 10000
0 0

0101101
*
Ed
 1e-07 1 1 0
1  10 0 0 8748.00000000005
2  19 2 0 0 8748.00000000005
2  20 10 0 0 8748.00000000005
0

0101000
+177 0 -179 0 *
Ve
1.00000568434189e-07
16266.0752912376 -1518.86812444021 10000
0 0

0101101
*
Ed
 1e-07 1 1 0
1  11 0 0 11467.9999999999
2  21 2 0 0 11467.9999999999
2  22 11 0 0 11467.9999999999
0

0101000
+175 0 -177 0 *
Ve
1.00000568434189e-07
18971.0752912377 -1518.86812444023 10000
0 0

0101101
*
Ed
 1e-07 1 1 0
1  12 0 0 2705.00000000009
2  23 2 0 0 2705.00000000009
2  24 12 0 0 2705.00000000009
0

0101000
+173 0 -175 0 *
Ve
1e-07
18971.0752912377 4367.13187555934 10000
0 0

0101101
*
Ed
 1e-07 1 1 0
1  13 0 0 5885.99999999956
2  25 2 0 0 5885.99999999956
2  26 13 0 0 5885.99999999956
0

0101000
+171 0 -173 0 *
Ve
1.00000909494702e-07
17771.0752912378 4367.13187555934 10000
0 0

0101101
*
Ed
 1e-07 1 1 0
1  14 0 0 1199.99999999996
2  27 2 0 0 1199.99999999996
2  28 14 0 0 1199.99999999996
0

0101000
+169 0 -171 0 *
Ve
1.00005456968211e-07
17771.0752912378 10901.1318755599 10000
0 0

0101101
*
Ed
 1e-07 1 1 0
1  15 0 0 6534.0000000006
2  29 2 0 0 6534.0000000006
2  30 15 0 0 6534.0000000006
0

0101000
+167 0 -169 0 *
Ve
1.00000909494702e-07
37919.0752912377 10901.1318755598 10000
0 0

0101101
*
Ed
 1e-07 1 1 0
1  16 0 0 20147.9999999999
2  31 2 0 0 20147.9999999999
2  32 16 0 0 20147.9999999999
0

0101000
+165 0 -167 0 *
Ve
1e-07
37919.0752912377 4367.13187555928 10000
0 0

0101101
*
Ed
 1e-07 1 1 0
1  17 0 0 6534.0000000005
2  33 2 0 0 6534.0000000005
2  34 17 0 0 6534.0000000005
0

0101000
+163 0 -165 0 *
Ve
1.00007275957614e-07
36719.0754218136 4367.13187555928 10000
0 0

0101101
*
Ed
 1e-07 1 1 0
1  18 0 0 1199.99986942417
2  35 2 0 0 1199.99986942417
2  36 18 0 0 1199.99986942417
0

0101000
+161 0 -163 0 *
Ed
 1.00007275957614e-07 1 1 0
1  19 0 0 5885.99999999964
2  37 2 0 0 5885.99999999964
2  38 3 0 0 5885.99999999964
0

0101000
+196 0 -161 0 *
Wi

0101100
-186 0 -184 0 -182 0 -180 0 -178 0 -176 0 -174 0 -172 0 -170 0 -168 0 
-166 0 -164 0 -162 0 -160 0 -159 0 -195 0 *
Ve
1.00001818989404e-07
29162.0752912377 -4345.86812444017 10000
0 0

0101101
*
Ve
1.00007275957614e-07
26502.0752912377 -4345.86812444015 10000
0 0

0101101
*
Ed
 1e-07 1 1 0
1  20 0 0 2660
2  39 2 0 0 2660
2  40 19 0 0 2660
0

0101000
+157 0 -156 0 *
Ve
1.00000454747351e-07
29162.0752912377 -2373.86812444017 10000
0 0

0101101
*
Ed
 1e-07 1 1 0
1  21 0 0 1972
2  41 2 0 0 1972
2  42 20 0 0 1972
0

0101000
+154 0 -157 0 *
Ve
1.00003637978807e-07
26502.0752912377 -2373.86812444015 10000
0 0

0101101
*
Ed
 1.00000454747351e-07 1 1 0
1  22 0 0 2660
2  43 2 0 0 2660
2  44 21 0 0 2660
0

0101000
+154 0 -152 0 *
Ed
 1.00003637978807e-07 1 1 0
1  23 0 0 1972
2  45 2 0 0 1972
2  46 22 0 0 1972
0

0101000
+156 0 -152 0 *
Wi

0101100
-155 0 -153 0 +151 0 -150 0 *
Fa
0  1e-07 2 0

0111000
+158 0 +149 0 *
Ve
1.00007275957614e-07
36719.0754218136 4367.13187555928 10596
0 0

0101101
*
Ed
 1e-07 1 1 0
1  24 0 0 596
2  47 3 0 0 596
2  48 18 0 0 596
0

0101000
+147 0 -161 0 *
Ed
 1.00007275957614e-07 1 1 0
1  25 0 0 5885.99999999964
2  49 3 0 0 5885.99999999964
2  50 4 0 0 5885.99999999964
0

0101000
+147 0 -194 0 *
Wi

0101100
+159 0 -146 0 +145 0 -193 0 *
Fa
0  1e-07 3 0

0111000
+144 0 *
Ve
1.00003637978807e-07
16266.0752912375 -12986.8681244401 10596
0 0

0101101
*
Ve
1.00001136868377e-07
16266.0752912376 -1518.86812444021 10596
0 0

0101101
*
Ed
 1e-07 1 1 0
1  26 0 0 11467.9999999999
2  51 4 0 0 11467.9999999999
2  52 11 0 0 11467.9999999999
0

0101000
+142 0 -141 0 *
Ve
1.00000909494702e-07
25014.0752912376 -12986.8681244401 10596
0 0

0101101
*
Ed
 1e-07 1 1 0
1  27 0 0 8748.00000000005
2  53 4 0 0 8748.00000000005
2  54 10 0 0 8748.00000000005
0

0101000
+139 0 -142 0 *
Ve
1.00005568932125e-07
25014.0752912376 -4878.86812444009 10596
0 0

0101101
*
Ed
 1e-07 1 1 0
1  28 0 0 8108
2  55 4 0 0 8108
2  56 9 0 0 8108
0

0101000
+137 0 -139 0 *
Ve
1.00004204690072e-07
30676.0752912377 -4878.86812444011 10596
0 0

0101101
*
Ed
 1e-07 1 1 0
1  29 0 0 5662.00000000003
2  57 4 0 0 5662.00000000003
2  58 8 0 0 5662.00000000003
0

0101000
+135 0 -137 0 *
Ve
1.00006366462912e-07
30676.0752912376 -12986.8681244401 10596
0 0

0101101
*
Ed
 1e-07 1 1 0
1  30 0 0 8107.99999999999
2  59 4 0 0 8107.99999999999
2  60 7 0 0 8107.99999999999
0

0101000
+133 0 -135 0 *
Ve
1.00001818989404e-07
39424.0752912376 -12986.8681244401 10596
0 0

0101101
*
Ed
 1e-07 1 1 0
1  31 0 0 8747.99999999995
2  61 4 0 0 8747.99999999995
2  62 6 0 0 8747.99999999995
0

0101000
+131 0 -133 0 *
Ed
 1e-07 1 1 0
1  32 0 0 11467.9999999997
2  63 4 0 0 11467.9999999997
2  64 5 0 0 11467.9999999997
0

0101000
+192 0 -131 0 *
Ve
1.00000909494702e-07
37919.0752912377 4367.13187555928 10596
0 0

0101101
*
Ed
 1e-07 1 1 0
1  33 0 0 1199.99986942417
2  65 4 0 0 1199.99986942417
2  66 18 0 0 1199.99986942417
0

0101000
+128 0 -147 0 *
Ve
1.00003749942721e-07
37919.0752912377 10901.1318755598 10596
0 0

0101101
*
Ed
 1e-07 1 1 0
1  34 0 0 6534.0000000005
2  67 4 0 0 6534.0000000005
2  68 17 0 0 6534.0000000005
0

0101000
+126 0 -128 0 *
Ve
1e-07
17771.0752912378 10901.1318755599 10596
0 0

0101101
*
Ed
 1e-07 1 1 0
1  35 0 0 20148
2  69 4 0 0 20148
2  70 16 0 0 20148
0

0101000
+124 0 -126 0 *
Ve
1e-07
17771.0752912378 4367.13187555934 10596
0 0

0101101
*
Ed
 1e-07 1 1 0
1  36 0 0 6534.0000000006
2  71 4 0 0 6534.0000000006
2  72 15 0 0 6534.0000000006
0

0101000
+122 0 -124 0 *
Ve
1.00005456968211e-07
18971.0752912377 4367.13187555934 10596
0 0

0101101
*
Ed
 1e-07 1 1 0
1  37 0 0 1199.99999999996
2  73 4 0 0 1199.99999999996
2  74 14 0 0 1199.99999999996
0

0101000
+120 0 -122 0 *
Ve
1.00000568434189e-07
18971.0752912377 -1518.86812444023 10596
0 0

0101101
*
Ed
 1e-07 1 1 0
1  38 0 0 5885.99999999956
2  75 4 0 0 5885.99999999956
2  76 13 0 0 5885.99999999956
0

0101000
+118 0 -120 0 *
Ed
 1e-07 1 1 0
1  39 0 0 2705.00000000009
2  77 4 0 0 2705.00000000009
2  78 12 0 0 2705.00000000009
0

0101000
+141 0 -118 0 *
Wi

0101100
-140 0 -138 0 -136 0 -134 0 -132 0 -130 0 -129 0 -191 0 -145 0 -127 0 
-125 0 -123 0 -121 0 -119 0 -117 0 -116 0 *
Ve
1.00003637978807e-07
26502.0752912377 -4345.86812444015 10596
0 0

0101101
*
Ve
1.00000909494702e-07
29162.0752912377 -4345.86812444017 10596
0 0

0101101
*
Ed
 1.00000909494702e-07 1 1 0
1  40 0 0 2660
2  79 4 0 0 2660
2  80 19 0 0 2660
0

0101000
+114 0 -113 0 *
Ve
1.00004092726158e-07
26502.0752912377 -2373.86812444015 10596
0 0

0101101
*
Ed
 1e-07 1 1 0
1  41 0 0 1972
2  81 4 0 0 1972
2  82 22 0 0 1972
0

0101000
+111 0 -114 0 *
Ve
1.00002273736754e-07
29162.0752912377 -2373.86812444017 10596
0 0

0101101
*
Ed
 1.00000454747351e-07 1 1 0
1  42 0 0 2660
2  83 4 0 0 2660
2  84 21 0 0 2660
0

0101000
+111 0 -109 0 *
Ed
 1e-07 1 1 0
1  43 0 0 1972
2  85 4 0 0 1972
2  86 20 0 0 1972
0

0101000
+113 0 -109 0 *
Wi

0101100
-112 0 -110 0 +108 0 -107 0 *
Fa
0  1e-07 4 0

0111000
+115 0 +106 0 *
Ed
 1e-07 1 1 0
1  44 0 0 596
2  87 5 0 0 596
2  88 6 0 0 596
0

0101000
+131 0 -187 0 *
Wi

0101100
+186 0 -190 0 +129 0 +104 0 *
Fa
0  1e-07 5 0

0111000
+103 0 *
Ed
 1e-07 1 1 0
1  45 0 0 596
2  89 6 0 0 596
2  90 7 0 0 596
0

0101000
+133 0 -185 0 *
Wi

0101100
+184 0 -104 0 +130 0 +101 0 *
Fa
0  1e-07 6 0

0111000
+100 0 *
Ed
 1e-07 1 1 0
1  46 0 0 596
2  91 7 0 0 596
2  92 8 0 0 596
0

0101000
+135 0 -183 0 *
Wi

0101100
+182 0 -101 0 +132 0 +98 0 *
Fa
0  1e-07 7 0

0111000
+97 0 *
Ed
 1e-07 1 1 0
1  47 0 0 596
2  93 8 0 0 596
2  94 9 0 0 596
0

0101000
+137 0 -181 0 *
Wi

0101100
+180 0 -98 0 +134 0 +95 0 *
Fa
0  1e-07 8 0

0111000
+94 0 *
Ed
 1e-07 1 1 0
1  48 0 0 596
2  95 9 0 0 596
2  96 10 0 0 596
0

0101000
+139 0 -179 0 *
Wi

0101100
+178 0 -95 0 +136 0 +92 0 *
Fa
0  1e-07 9 0

0111000
+91 0 *
Ed
 1e-07 1 1 0
1  49 0 0 596
2  97 10 0 0 596
2  98 11 0 0 596
0

0101000
+142 0 -177 0 *
Wi

0101100
+176 0 -92 0 +138 0 +89 0 *
Fa
0  1e-07 10 0

0111000
+88 0 *
Ed
 1e-07 1 1 0
1  50 0 0 596
2  99 11 0 0 596
2  100 12 0 0 596
0

0101000
+141 0 -175 0 *
Wi

0101100
+174 0 -89 0 +140 0 +86 0 *
Fa
0  1e-07 11 0

0111000
+85 0 *
Ed
 1e-07 1 1 0
1  51 0 0 596
2  101 12 0 0 596
2  102 13 0 0 596
0

0101000
+118 0 -173 0 *
Wi

0101100
+172 0 -86 0 +116 0 +83 0 *
Fa
0  1e-07 12 0

0111000
+82 0 *
Ed
 1e-07 1 1 0
1  52 0 0 596
2  103 13 0 0 596
2  104 14 0 0 596
0

0101000
+120 0 -171 0 *
Wi

0101100
+170 0 -83 0 +117 0 +80 0 *
Fa
0  1e-07 13 0

0111000
+79 0 *
Ed
 1e-07 1 1 0
1  53 0 0 596
2  105 14 0 0 596
2  106 15 0 0 596
0

0101000
+122 0 -169 0 *
Wi

0101100
+168 0 -80 0 +119 0 +77 0 *
Fa
0  1e-07 14 0

0111000
+76 0 *
Ed
 1e-07 1 1 0
1  54 0 0 596
2  107 15 0 0 596
2  108 16 0 0 596
0

0101000
+167 0 -124 0 *
Wi

0101100
-74 0 +166 0 -77 0 +121 0 *
Fa
0  1e-07 15 0

0111000
+73 0 *
Ed
 1e-07 1 1 0
1  55 0 0 596
2  109 16 0 0 596
2  110 17 0 0 596
0

0101000
+165 0 -126 0 *
Wi

0101100
+164 0 +74 0 +123 0 -71 0 *
Fa
0  1e-07 16 0

0111000
+70 0 *
Ed
 1e-07 1 1 0
1  56 0 0 596
2  111 17 0 0 596
2  112 18 0 0 596
0

0101000
+128 0 -163 0 *
Wi

0101100
+71 0 +125 0 +68 0 +162 0 *
Fa
0  1e-07 17 0

0111000
+67 0 *
Wi

0101100
+160 0 -68 0 +127 0 +146 0 *
Fa
0  1e-07 18 0

0111000
+65 0 *
Ed
 1e-07 1 1 0
1  57 0 0 596
2  113 19 0 0 596
2  114 22 0 0 596
0

0101000
+114 0 -156 0 *
Ed
 1e-07 1 1 0
1  58 0 0 596
2  115 19 0 0 596
2  116 20 0 0 596
0

0101000
+113 0 -157 0 *
Wi

0101100
-63 0 +112 0 +62 0 +155 0 *
Fa
0  1e-07 19 0

0111000
+61 0 *
Ed
 1e-07 1 1 0
1  59 0 0 596
2  117 20 0 0 596
2  118 21 0 0 596
0

0101000
+109 0 -154 0 *
Wi

0101100
+59 0 +153 0 -62 0 +107 0 *
Fa
0  1e-07 20 0

0111000
+58 0 *
Ed
 1e-07 1 1 0
1  60 0 0 596
2  119 21 0 0 596
2  120 22 0 0 596
0

0101000
+152 0 -111 0 *
Wi

0101100
-56 0 -151 0 -59 0 -108 0 *
Fa
0  1e-07 21 0

0111000
+55 0 *
Wi

0101100
+56 0 +110 0 +63 0 +150 0 *
Fa
0  1e-07 22 0

0111000
+53 0 *
Sh

0101100
+188 0 +148 0 +143 0 +105 0 +102 0 +99 0 +96 0 +93 0 +90 0 +87 0 
+84 0 +81 0 +78 0 +75 0 +72 0 +69 0 +66 0 +64 0 +60 0 +57 0 
+54 0 +52 0 *
So

0100000
+51 0 *
Ve
1.00004092726158e-07
29312.0752912377 -4578.86812444011 11200.1219088598
0 0

0101101
*
Ve
1.00003637978807e-07
27832.0752912377 -4578.8681244401 11251.8046477075
0 0

0101101
*
Ed
 1.00001818989404e-07 1 1 0
1  61 0 0 1480.90212556226
2  121 23 0 0 1480.90212556226
2  122 24 0 0 1480.90212556226
0

0101000
+49 0 -48 0 *
Ve
1.00003637978807e-07
26352.0752912377 -4578.8681244401 11200.1219088598
0 0

0101101
*
Ed
 1.00001818989404e-07 1 1 0
1  62 0 0 1480.90212556226
2  123 23 0 0 1480.90212556226
2  124 25 0 0 1480.90212556226
0

0101000
+48 0 -46 0 *
Ve
1.00003637978807e-07
26352.0752912377 -4578.8681244401 11000
0 0

0101101
*
Ed
 1e-07 1 1 0
1  63 0 0 200.121908859765
2  125 23 0 0 200.121908859765
2  126 26 0 0 200.121908859765
0

0101000
+46 0 -44 0 *
Ve
1.00003637978807e-07
27832.0752912377 -4578.8681244401 11051.6827388478
0 0

0101101
*
Ed
 1.00001818989404e-07 1 1 0
1  64 0 0 1480.90212556226
2  127 23 0 0 1480.90212556226
2  128 27 0 0 1480.90212556226
0

0101000
+44 0 -42 0 *
Ve
1.00001874971361e-07
29312.0752912377 -4578.86812444011 11000
0 0

0101101
*
Ed
 1.00001818989404e-07 1 1 0
1  65 0 0 1480.90212556226
2  129 23 0 0 1480.90212556226
2  130 28 0 0 1480.90212556226
0

0101000
+42 0 -40 0 *
Ed
 1e-07 1 1 0
1  66 0 0 200.121908859765
2  131 23 0 0 200.121908859765
2  132 29 0 0 200.121908859765
0

0101000
+40 0 -49 0 *
Wi

0101100
+47 0 +45 0 +43 0 +41 0 +39 0 +38 0 *
Fa
0  1e-07 23 0

0111000
+37 0 *
Ve
1.00007275957614e-07
29312.0752912377 -2283.86812444006 11200.1219088598
0 0

0101101
*
Ed
 1.00003637978807e-07 1 1 0
1  67 0 0 2295.00000000004
2  133 24 0 0 2295.00000000004
2  134 29 0 0 2295.00000000004
0

0101000
+35 0 -49 0 *
Ve
1.00003637978807e-07
27832.0752912377 -2283.86812444006 11251.8046477075
0 0

0101101
*
Ed
 1.00001818989404e-07 1 1 0
1  68 0 0 1480.90212556225
2  135 24 0 0 1480.90212556225
2  136 30 0 0 1480.90212556225
0

0101000
+33 0 -35 0 *
Ed
 1e-07 1 1 0
1  69 0 0 2295.00000000003
2  137 24 0 0 2295.00000000003
2  138 25 0 0 2295.00000000003
0

0101000
+48 0 -33 0 *
Wi

0101100
-47 0 -34 0 -32 0 -31 0 *
Fa
0  1e-07 24 0

0111000
+30 0 *
Ve
1.00003645077309e-07
26352.0752912377 -2283.86812444006 11200.1219088598
0 0

0101101
*
Ed
 1.00001818989404e-07 1 1 0
1  70 0 0 1480.90212556226
2  139 25 0 0 1480.90212556226
2  140 30 0 0 1480.90212556226
0

0101000
+28 0 -33 0 *
Ed
 1.00003637978807e-07 1 1 0
1  71 0 0 2295.00000000003
2  141 25 0 0 2295.00000000003
2  142 26 0 0 2295.00000000003
0

0101000
+46 0 -28 0 *
Wi

0101100
+31 0 -27 0 -26 0 -45 0 *
Fa
0  1e-07 25 0

0111000
+25 0 *
Ve
1.00003637978807e-07
26352.0752912377 -2283.86812444006 11000
0 0

0101101
*
Ed
 1e-07 1 1 0
1  72 0 0 200.121908859765
2  143 26 0 0 200.121908859765
2  144 30 0 0 200.121908859765
0

0101000
+23 0 -28 0 *
Ed
 1e-07 1 1 0
1  73 0 0 2295.00000000003
2  145 26 0 0 2295.00000000003
2  146 27 0 0 2295.00000000003
0

0101000
+44 0 -23 0 *
Wi

0101100
-22 0 -21 0 -43 0 +26 0 *
Fa
0  1e-07 26 0

0111000
+20 0 *
Ve
1.00003637978807e-07
27832.0752912377 -2283.86812444006 11051.6827388478
0 0

0101101
*
Ed
 1e-07 1 1 0
1  74 0 0 2295.00000000003
2  147 27 0 0 2295.00000000003
2  148 28 0 0 2295.00000000003
0

0101000
+42 0 -18 0 *
Ed
 1.00001818989404e-07 1 1 0
1  75 0 0 1480.90212556226
2  149 27 0 0 1480.90212556226
2  150 30 0 0 1480.90212556226
0

0101000
+18 0 -23 0 *
Wi

0101100
-17 0 -41 0 +21 0 -16 0 *
Fa
0  1e-07 27 0

0111000
+15 0 *
Ve
1.00005485279757e-07
29312.0752912377 -2283.86812444007 11000
0 0

0101101
*
Ed
 1.00001818989404e-07 1 1 0
1  76 0 0 1480.90212556225
2  151 28 0 0 1480.90212556225
2  152 30 0 0 1480.90212556225
0

0101000
+13 0 -18 0 *
Ed
 1e-07 1 1 0
1  77 0 0 2295.00000000004
2  153 28 0 0 2295.00000000004
2  154 29 0 0 2295.00000000004
0

0101000
+13 0 -40 0 *
Wi

0101100
-39 0 +17 0 -12 0 +11 0 *
Fa
0  1e-07 28 0

0111000
+10 0 *
Ed
 1e-07 1 1 0
1  78 0 0 200.121908859765
2  155 29 0 0 200.121908859765
2  156 30 0 0 200.121908859765
0

0101000
+35 0 -13 0 *
Wi

0101100
-38 0 -11 0 -8 0 +34 0 *
Fa
0  1e-07 29 0

0111000
+7 0 *
Wi

0101100
+27 0 +32 0 +8 0 +12 0 +16 0 +22 0 *
Fa
0  1e-07 30 0

0111000
+5 0 *
Sh

0101100
+36 0 +29 0 +24 0 +19 0 +14 0 +9 0 +6 0 +4 0 *
So

0100000
+3 0 *
Co

0100000
+50 0 +2 0 *

+1 0 